<svg width="53" height="13" viewBox="0 0 53 13" fill="none" xmlns="http://www.w3.org/2000/svg">
<path d="M8.00001 8.484V7.092H11V8.484H8.00001ZM11 8.484V7.092C11.048 7.092 11.084 7.108 11.108 7.14C11.14 7.172 11.164 7.22 11.18 7.284C11.204 7.348 11.22 7.424 11.228 7.512C11.236 7.592 11.24 7.684 11.24 7.788C11.24 7.892 11.236 7.988 11.228 8.076C11.22 8.164 11.204 8.24 11.18 8.304C11.164 8.36 11.14 8.404 11.108 8.436C11.084 8.468 11.048 8.484 11 8.484ZM8.00001 8.484C7.95201 8.484 7.91601 8.468 7.89201 8.436C7.86001 8.404 7.83601 8.36 7.82001 8.304C7.79601 8.24 7.78001 8.164 7.77201 8.076C7.76401 7.988 7.76001 7.892 7.76001 7.788C7.76001 7.644 7.76801 7.524 7.78401 7.428C7.80001 7.324 7.82801 7.244 7.86801 7.188C7.90001 7.124 7.94401 7.092 8.00001 7.092V8.484Z" fill="white"/>
<path d="M11 8.484V7.092H14V8.484H11ZM14 8.484V7.092C14.048 7.092 14.084 7.108 14.108 7.14C14.14 7.172 14.164 7.22 14.18 7.284C14.204 7.348 14.22 7.424 14.228 7.512C14.236 7.592 14.24 7.684 14.24 7.788C14.24 7.892 14.236 7.988 14.228 8.076C14.22 8.164 14.204 8.24 14.18 8.304C14.164 8.36 14.14 8.404 14.108 8.436C14.084 8.468 14.048 8.484 14 8.484ZM11 8.484C10.952 8.484 10.916 8.468 10.892 8.436C10.86 8.404 10.836 8.36 10.82 8.304C10.796 8.24 10.78 8.164 10.772 8.076C10.764 7.988 10.76 7.892 10.76 7.788C10.76 7.644 10.768 7.524 10.784 7.428C10.8 7.324 10.828 7.244 10.868 7.188C10.9 7.124 10.944 7.092 11 7.092V8.484Z" fill="white"/>
<path d="M21.092 8.484V7.092H22.364V8.484H21.092ZM14 8.484C13.952 8.484 13.916 8.468 13.892 8.436C13.86 8.404 13.836 8.36 13.82 8.304C13.796 8.24 13.78 8.164 13.772 8.076C13.764 7.988 13.76 7.892 13.76 7.788C13.76 7.644 13.768 7.524 13.784 7.428C13.8 7.324 13.828 7.244 13.868 7.188C13.9 7.124 13.944 7.092 14 7.092V8.484ZM14 8.484V7.092H20.228L19.496 7.716V5.508C19.496 5.076 19.448 4.74 19.352 4.5C19.256 4.252 19.088 4.08 18.848 3.984C18.616 3.88 18.292 3.828 17.876 3.828C17.548 3.828 17.224 3.852 16.904 3.9C16.592 3.94 16.348 3.996 16.172 4.068L17.168 3.132C17.12 3.316 17.072 3.548 17.024 3.828C16.984 4.108 16.948 4.408 16.916 4.728C16.884 5.04 16.868 5.348 16.868 5.652C16.868 5.932 16.88 6.224 16.904 6.528C16.936 6.832 16.968 7.1 17 7.332C17.04 7.564 17.072 7.724 17.096 7.812L15.572 8.232C15.54 8.12 15.5 7.936 15.452 7.68C15.404 7.424 15.36 7.12 15.32 6.768C15.288 6.416 15.272 6.044 15.272 5.652C15.272 5.252 15.292 4.868 15.332 4.5C15.372 4.124 15.416 3.788 15.464 3.492C15.52 3.188 15.572 2.944 15.62 2.76C15.812 2.688 16.112 2.616 16.52 2.544C16.928 2.472 17.38 2.436 17.876 2.436C18.596 2.436 19.192 2.536 19.664 2.736C20.144 2.936 20.5 3.26 20.732 3.708C20.972 4.156 21.092 4.76 21.092 5.52V8.484H14ZM22.364 8.484V7.092C22.404 7.092 22.44 7.108 22.472 7.14C22.504 7.172 22.528 7.22 22.544 7.284C22.56 7.348 22.572 7.424 22.58 7.512C22.596 7.592 22.604 7.684 22.604 7.788C22.604 7.892 22.596 7.988 22.58 8.076C22.572 8.164 22.56 8.24 22.544 8.304C22.528 8.36 22.504 8.404 22.472 8.436C22.44 8.468 22.404 8.484 22.364 8.484Z" fill="white"/>
<path d="M25.8712 8.484V7.092H27.3712V8.484H25.8712ZM27.3712 8.484V7.092C27.4112 7.092 27.4472 7.108 27.4792 7.14C27.5112 7.172 27.5352 7.22 27.5512 7.284C27.5672 7.348 27.5792 7.424 27.5872 7.512C27.6032 7.592 27.6112 7.684 27.6112 7.788C27.6112 7.892 27.6032 7.988 27.5872 8.076C27.5792 8.164 27.5672 8.24 27.5512 8.304C27.5352 8.36 27.5112 8.404 27.4792 8.436C27.4552 8.468 27.4192 8.484 27.3712 8.484ZM22.3672 8.484C22.3192 8.484 22.2832 8.468 22.2592 8.436C22.2272 8.404 22.2032 8.36 22.1872 8.304C22.1632 8.24 22.1472 8.164 22.1392 8.076C22.1312 7.988 22.1272 7.892 22.1272 7.788C22.1272 7.644 22.1352 7.524 22.1512 7.428C22.1672 7.324 22.1952 7.244 22.2352 7.188C22.2672 7.124 22.3112 7.092 22.3672 7.092V8.484ZM22.3672 8.484V7.092H25.2112L24.2752 7.872V2.46H25.8712V8.484H22.3672ZM22.7992 11.04V9.672H24.3472V11.04H22.7992ZM24.9832 11.04V9.672H26.5312V11.04H24.9832Z" fill="white"/>
<path d="M27.3712 8.484V7.092H35.6991L34.5831 7.992V5.94C34.5831 5.252 34.4911 4.7 34.3071 4.284C34.1311 3.868 33.8471 3.568 33.4551 3.384C33.0711 3.192 32.5711 3.096 31.9551 3.096C31.6591 3.096 31.3351 3.108 30.9831 3.132C30.6311 3.148 30.2791 3.172 29.9271 3.204C29.5831 3.228 29.2711 3.256 28.9911 3.288L28.8231 2.208C29.0951 2.136 29.4111 2.06 29.7711 1.98C30.1311 1.9 30.5071 1.832 30.8991 1.776C31.2991 1.72 31.6871 1.692 32.0631 1.692C32.5831 1.692 33.0871 1.764 33.5751 1.908C34.0711 2.044 34.5151 2.276 34.9071 2.604C35.2991 2.924 35.6111 3.356 35.8431 3.9C36.0751 4.444 36.1911 5.124 36.1911 5.94V8.484H27.3712ZM28.6071 7.092V6.492C28.6071 6.108 28.7031 5.752 28.8951 5.424C29.0951 5.088 29.3671 4.824 29.7111 4.632C30.0551 4.432 30.4391 4.332 30.8631 4.332C31.2871 4.332 31.6671 4.432 32.0031 4.632C32.3391 4.824 32.6031 5.084 32.7951 5.412C32.9951 5.74 33.0951 6.1 33.0951 6.492V7.092H31.8231V6.492C31.8231 6.292 31.7791 6.116 31.6911 5.964C31.6031 5.804 31.4871 5.676 31.3431 5.58C31.1991 5.484 31.0391 5.436 30.8631 5.436C30.6871 5.436 30.5231 5.484 30.3711 5.58C30.2271 5.676 30.1111 5.804 30.0231 5.964C29.9351 6.116 29.8911 6.292 29.8911 6.492V7.092H28.6071ZM27.3712 8.484C27.3232 8.484 27.2871 8.468 27.2631 8.436C27.2311 8.404 27.2071 8.36 27.1911 8.304C27.1671 8.24 27.1511 8.164 27.1431 8.076C27.1351 7.988 27.1311 7.892 27.1311 7.788C27.1311 7.644 27.1391 7.524 27.1551 7.428C27.1711 7.324 27.1991 7.244 27.2391 7.188C27.2711 7.124 27.3152 7.092 27.3712 7.092V8.484Z" fill="white"/>
<path d="M38.0956 8.484V0H39.6916V8.484H38.0956Z" fill="white"/>
<path d="M43.5614 8.484V7.092H45.1094V8.484H43.5614ZM41.2334 11.46C41.1294 11.46 41.0174 11.456 40.8974 11.448C40.7774 11.44 40.6534 11.428 40.5254 11.412L40.5854 10.044C40.7134 10.052 40.8334 10.06 40.9454 10.068C41.0654 10.076 41.1534 10.08 41.2094 10.08C41.5214 10.08 41.7694 9.956 41.9534 9.708C42.1454 9.46 42.2414 9.112 42.2414 8.664V2.46H43.8494V8.664C43.8494 9.208 43.7374 9.692 43.5134 10.116C43.2974 10.54 42.9934 10.868 42.6014 11.1C42.2094 11.34 41.7534 11.46 41.2334 11.46ZM45.1094 8.484V7.092C45.1574 7.092 45.1934 7.108 45.2174 7.14C45.2494 7.172 45.2734 7.22 45.2894 7.284C45.3134 7.348 45.3294 7.424 45.3374 7.512C45.3454 7.592 45.3494 7.684 45.3494 7.788C45.3494 7.892 45.3454 7.988 45.3374 8.076C45.3294 8.164 45.3134 8.24 45.2894 8.304C45.2734 8.36 45.2494 8.404 45.2174 8.436C45.1934 8.468 45.1574 8.484 45.1094 8.484Z" fill="white"/>
<path d="M45.1133 8.484V7.092H47.3093L46.3733 7.872V2.46H47.9813V8.484H45.1133ZM45.1133 8.484C45.0653 8.484 45.0293 8.468 45.0053 8.436C44.9733 8.404 44.9493 8.36 44.9333 8.304C44.9093 8.24 44.8933 8.164 44.8853 8.076C44.8773 7.988 44.8733 7.892 44.8733 7.788C44.8733 7.644 44.8813 7.524 44.8973 7.428C44.9133 7.324 44.9413 7.244 44.9813 7.188C45.0133 7.124 45.0573 7.092 45.1133 7.092V8.484ZM46.3733 11.04V9.672H47.9813V11.04H46.3733Z" fill="white"/>
<path d="M49.9316 8.484V0H51.5276V8.484H49.9316ZM50.0036 12.072C49.8516 11.888 49.7356 11.712 49.6556 11.544C49.5756 11.376 49.5356 11.196 49.5356 11.004C49.5356 10.732 49.6076 10.484 49.7516 10.26C49.8956 10.044 50.0836 9.872 50.3156 9.744C50.5476 9.624 50.8036 9.564 51.0836 9.564C51.2356 9.564 51.3916 9.584 51.5516 9.624C51.7116 9.664 51.8476 9.724 51.9596 9.804L51.5516 10.536C51.4796 10.496 51.4076 10.468 51.3356 10.452C51.2716 10.444 51.2036 10.44 51.1316 10.44C50.9396 10.44 50.7916 10.488 50.6876 10.584C50.5836 10.688 50.5316 10.824 50.5316 10.992C50.5316 11.088 50.5516 11.18 50.5916 11.268C50.6316 11.356 50.6916 11.452 50.7716 11.556L50.0036 12.072ZM49.2716 12.168V11.292H52.1756V12.168H49.2716Z" fill="white"/>
<path d="M0.25106 3.76529C-0.0836867 3.47236 -0.0836867 2.99664 0.25106 2.70371C0.585807 2.41078 1.12944 2.41078 1.46418 2.70371L5.74894 6.45322C6.08369 6.74615 6.08369 7.22187 5.74894 7.5148L1.46418 11.2643C1.12944 11.5572 0.585807 11.5572 0.25106 11.2643C-0.0836867 10.9714 -0.0836867 10.4957 0.25106 10.2027L3.92792 6.98518L0.25106 3.76529Z" fill="white"/>
</svg>
