<svg width="150" height="21" viewBox="0 0 150 21" fill="none" xmlns="http://www.w3.org/2000/svg">
<g clip-path="url(#clip0_175_2)">
<path d="M112.984 20.592V0.0529938H113.029L124.454 15.587L122.731 15.196L134.11 0.00999451H134.155V20.548H130.121V8.79699L130.393 10.797L123.457 20.283H123.41L116.247 10.797L116.927 8.92599V20.548H112.984V20.592Z" fill="white"/>
<path d="M102.286 0.00999451H106.32V20.592H102.286V0.00999451Z" fill="white"/>
<path d="M95.6241 0.00999451V20.592H91.5901V12.203H82.39V20.545H78.3521V0.00999451H82.386V8.30999H91.586V0.00999451H95.6241Z" fill="white"/>
<path d="M53.6689 20.592L62.9619 0.00999451H63.1889L72.4819 20.592H67.7689L61.8289 6.084L64.7759 4.16299L57.6579 20.597L53.6689 20.592Z" fill="white"/>
<path d="M37.533 0.00999197C39.0459 -0.0392082 40.5503 0.255168 41.933 0.870992C43.0522 1.39193 43.9968 2.22541 44.653 3.27099C45.3061 4.38248 45.6358 5.65423 45.605 6.94299C45.5959 7.7864 45.4741 8.62481 45.243 9.43599C44.9627 10.2678 44.5494 11.0486 44.019 11.748C43.3909 12.4616 42.6186 13.0338 41.753 13.427C40.6596 13.8709 39.4869 14.0867 38.307 14.061H35.407V20.589H31.368V0.00999197H37.533ZM38.213 10.12C38.8826 10.1514 39.5457 9.97688 40.113 9.61999C40.5319 9.30217 40.8601 8.88016 41.065 8.39599C41.238 7.9774 41.3303 7.52987 41.337 7.07699C41.3233 6.78861 41.2939 6.50119 41.249 6.21599C41.1937 5.84194 41.0542 5.48533 40.841 5.17299C40.6057 4.7949 40.2781 4.48281 39.889 4.26599C39.3676 4.00932 38.7909 3.885 38.21 3.90399H35.31V10.115L38.213 10.12ZM42.021 12.658L47.094 20.591H42.384L37.168 12.749L42.021 12.658Z" fill="white"/>
<path d="M16.726 0.0109985C18.5274 -0.0725848 20.3125 0.385441 21.851 1.326C22.4717 1.75128 22.9724 2.3291 23.3052 3.00388C23.6379 3.67867 23.7915 4.42772 23.751 5.179C23.7894 6.31233 23.4542 7.42687 22.797 8.351C22.1608 9.22687 21.2763 9.89156 20.258 10.259C19.0822 10.6899 17.8382 10.9047 16.586 10.893L15.952 8.717C17.4904 8.69322 19.0223 8.92296 20.486 9.397C21.6834 9.7834 22.7608 10.4723 23.614 11.397C24.3772 12.2568 24.7829 13.3758 24.748 14.525C24.7823 15.5104 24.5804 16.4896 24.159 17.381C23.7788 18.1261 23.2176 18.7639 22.527 19.236C21.8195 19.7095 21.0382 20.0619 20.215 20.279C19.3411 20.5013 18.4417 20.6079 17.54 20.596H10.697V0.0109985H16.726ZM17.226 8.443C17.5574 8.47666 17.8921 8.42811 18.2003 8.30166C18.5085 8.17521 18.7807 7.97474 18.993 7.718C19.3592 7.25122 19.5657 6.67908 19.582 6.086C19.6073 5.78109 19.5539 5.47478 19.427 5.19639C19.3001 4.91801 19.1038 4.67685 18.857 4.496C18.3012 4.10971 17.6331 3.91841 16.957 3.952H14.777V8.44L17.226 8.443ZM17.362 16.83C18.1524 16.8547 18.935 16.6669 19.628 16.286C19.8699 16.1148 20.0737 15.8954 20.2266 15.6416C20.3795 15.3878 20.4782 15.1051 20.5166 14.8113C20.5549 14.5175 20.532 14.2189 20.4493 13.9344C20.3666 13.6498 20.2259 13.3855 20.036 13.158C19.6628 12.8321 19.2085 12.613 18.721 12.524C18.171 12.3941 17.607 12.3333 17.042 12.343H14.731V16.831H17.36L17.362 16.83Z" fill="white"/>
<path d="M0 0.00999451H4.034V20.592H0V0.00999451Z" fill="white"/>
<path d="M142.957 0.914001V5.389H142.276V0.914001H141.013V0.233002H144.127V0.914001H142.957Z" fill="white"/>
<path d="M149.089 5.292V1.303L147.532 3.541H147.045L145.488 1.303V5.292H144.808V0.136002H145.586L147.337 2.568L149.088 0.136002H149.866V5.292H149.089Z" fill="white"/>
</g>
<defs>
<clipPath id="clip0_175_2">
<rect width="149.867" height="20.597" fill="white"/>
</clipPath>
</defs>
</svg>
